<?xml version="1.0" standalone="no"?>
<!DOCTYPE svg PUBLIC "-//W3C//DTD SVG 20010904//EN"
 "http://www.w3.org/TR/2001/REC-SVG-20010904/DTD/svg10.dtd">
<svg version="1.0" xmlns="http://www.w3.org/2000/svg"
 width="942.000000pt" height="1280.000000pt" viewBox="0 0 942.000000 1280.000000"
 preserveAspectRatio="xMidYMid meet">
<metadata>
Created by potrace 1.15, written by Peter Selinger 2001-2017
</metadata>
<g transform="translate(0.000000,1280.000000) scale(0.100000,-0.100000)"
fill="#000000" stroke="none">
<path d="M4495 12794 c-16 -2 -68 -9 -115 -15 -807 -106 -1699 -769 -2476
-1839 -909 -1251 -1570 -2922 -1808 -4566 -114 -782 -125 -1632 -30 -2369 285
-2235 1509 -3566 3599 -3914 692 -115 1447 -119 2056 -11 915 163 1726 591
2354 1241 332 344 578 696 804 1149 287 577 450 1174 523 1915 16 169 16 823
0 1060 -98 1391 -424 2684 -989 3925 -268 588 -600 1152 -962 1635 -766 1023
-1625 1638 -2476 1770 -96 15 -417 28 -480 19z"/>
</g>
</svg>
